<svg width="178" height="17" viewBox="0 0 178 17" fill="none" xmlns="http://www.w3.org/2000/svg">
<path d="M5.18408 6.33447C4.95166 6.15186 4.61686 6.06055 4.17969 6.06055C3.6097 6.06055 3.13379 6.31787 2.75195 6.83252C2.37012 7.34717 2.1792 8.0472 2.1792 8.93262V13H0.253418V4.5H2.1792V6.25146H2.2124C2.40055 5.65381 2.68831 5.18896 3.07568 4.85693C3.46859 4.51937 3.90576 4.35059 4.38721 4.35059C4.73584 4.35059 5.00146 4.40316 5.18408 4.5083V6.33447ZM13.5928 9.27295H7.79883C7.82096 10.0588 8.06169 10.6647 8.521 11.0908C8.98584 11.5169 9.62223 11.73 10.4302 11.73C11.3377 11.73 12.1706 11.4588 12.9287 10.9165V12.4688C12.154 12.9557 11.1302 13.1992 9.85742 13.1992C8.60677 13.1992 7.62451 12.8146 6.91064 12.0454C6.20231 11.2707 5.84814 10.1833 5.84814 8.7832C5.84814 7.46061 6.23828 6.38428 7.01855 5.5542C7.80436 4.71859 8.77832 4.30078 9.94043 4.30078C11.1025 4.30078 12.0018 4.67432 12.6382 5.42139C13.2746 6.16846 13.5928 7.20605 13.5928 8.53418V9.27295ZM11.7334 7.91162C11.7279 7.21989 11.5646 6.68311 11.2437 6.30127C10.9227 5.9139 10.48 5.72021 9.91553 5.72021C9.36214 5.72021 8.89176 5.9222 8.50439 6.32617C8.12256 6.73014 7.88737 7.25863 7.79883 7.91162H11.7334ZM21.9517 13H20.084V11.6719H20.0508C19.4642 12.6901 18.6037 13.1992 17.4692 13.1992C16.6336 13.1992 15.9779 12.9723 15.502 12.5186C15.0316 12.0648 14.7964 11.4644 14.7964 10.7173C14.7964 9.11247 15.7205 8.17725 17.5688 7.91162L20.0923 7.55469C20.0923 6.34277 19.5168 5.73682 18.3657 5.73682C17.353 5.73682 16.4399 6.08545 15.6265 6.78271V5.09766C16.5229 4.56641 17.5578 4.30078 18.731 4.30078C20.8781 4.30078 21.9517 5.35775 21.9517 7.47168V13ZM20.0923 8.82471L18.3076 9.07373C17.7542 9.14567 17.3364 9.28125 17.0542 9.48047C16.7775 9.67415 16.6392 10.0173 16.6392 10.5098C16.6392 10.8695 16.7664 11.1655 17.021 11.3979C17.2811 11.6248 17.627 11.7383 18.0586 11.7383C18.6452 11.7383 19.1294 11.5335 19.5112 11.124C19.8986 10.709 20.0923 10.1888 20.0923 9.56348V8.82471ZM30.3936 12.6099C29.7129 13.0028 28.9077 13.1992 27.978 13.1992C26.7163 13.1992 25.6981 12.8063 24.9233 12.0205C24.1486 11.2292 23.7612 10.2054 23.7612 8.94922C23.7612 7.54915 24.1763 6.42578 25.0063 5.5791C25.842 4.72689 26.957 4.30078 28.3516 4.30078C29.1263 4.30078 29.8097 4.43636 30.4019 4.70752V6.50049C29.8097 6.05778 29.1789 5.83643 28.5093 5.83643C27.6958 5.83643 27.029 6.11312 26.5088 6.6665C25.9886 7.21436 25.7285 7.93376 25.7285 8.82471C25.7285 9.70459 25.972 10.3991 26.459 10.9082C26.9515 11.4173 27.61 11.6719 28.4346 11.6719C29.1263 11.6719 29.7793 11.4256 30.3936 10.9331V12.6099ZM36.7935 12.9087C36.4172 13.0968 35.9219 13.1909 35.3076 13.1909C33.6585 13.1909 32.834 12.3996 32.834 10.8169V6.01074H31.4146V4.5H32.834V2.53271L34.7598 1.98486V4.5H36.7935V6.01074H34.7598V10.2607C34.7598 10.7643 34.8511 11.124 35.0337 11.3398C35.2163 11.5557 35.5207 11.6636 35.9468 11.6636C36.2733 11.6636 36.5555 11.5695 36.7935 11.3813V12.9087ZM42.0645 9.06543H37.5322V7.646H42.0645V9.06543ZM57.1387 13H55.2129V8.36816C55.2129 7.47721 55.0856 6.83252 54.8311 6.43408C54.582 6.03564 54.1587 5.83643 53.561 5.83643C53.0575 5.83643 52.6286 6.08822 52.2744 6.5918C51.9258 7.09538 51.7515 7.69857 51.7515 8.40137V13H49.8174V8.21045C49.8174 6.62777 49.2585 5.83643 48.1406 5.83643C47.6204 5.83643 47.1916 6.07438 46.854 6.55029C46.522 7.0262 46.356 7.64323 46.356 8.40137V13H44.4302V4.5H46.356V5.84473H46.3892C47.0034 4.81543 47.8971 4.30078 49.0703 4.30078C49.6569 4.30078 50.1688 4.46403 50.606 4.79053C51.0487 5.11149 51.3503 5.53483 51.5107 6.06055C52.1416 4.88737 53.0824 4.30078 54.333 4.30078C56.2035 4.30078 57.1387 5.45459 57.1387 7.76221V13ZM66.9004 13H64.9746V11.6553H64.9414C64.3825 12.6846 63.5137 13.1992 62.335 13.1992C60.3262 13.1992 59.3218 11.9928 59.3218 9.58008V4.5H61.2476V9.38086C61.2476 10.9082 61.8369 11.6719 63.0156 11.6719C63.5856 11.6719 64.0532 11.4616 64.4185 11.041C64.7892 10.6204 64.9746 10.0698 64.9746 9.38916V4.5H66.9004V13ZM70.3867 2.71533C70.0713 2.71533 69.8001 2.61296 69.5732 2.4082C69.3519 2.20345 69.2412 1.94336 69.2412 1.62793C69.2412 1.3125 69.3519 1.04964 69.5732 0.839355C69.8001 0.629069 70.0713 0.523926 70.3867 0.523926C70.7132 0.523926 70.9899 0.629069 71.2168 0.839355C71.4437 1.04964 71.5571 1.3125 71.5571 1.62793C71.5571 1.92676 71.4437 2.18408 71.2168 2.3999C70.9899 2.61019 70.7132 2.71533 70.3867 2.71533ZM71.3413 13H69.4155V4.5H71.3413V13ZM78.3389 9.06543H73.8066V7.646H78.3389V9.06543ZM93.4131 13H91.4873V8.36816C91.4873 7.47721 91.36 6.83252 91.1055 6.43408C90.8564 6.03564 90.4331 5.83643 89.8354 5.83643C89.3319 5.83643 88.903 6.08822 88.5488 6.5918C88.2002 7.09538 88.0259 7.69857 88.0259 8.40137V13H86.0918V8.21045C86.0918 6.62777 85.5329 5.83643 84.415 5.83643C83.8949 5.83643 83.466 6.07438 83.1284 6.55029C82.7964 7.0262 82.6304 7.64323 82.6304 8.40137V13H80.7046V4.5H82.6304V5.84473H82.6636C83.2778 4.81543 84.1715 4.30078 85.3447 4.30078C85.9313 4.30078 86.4432 4.46403 86.8804 4.79053C87.3231 5.11149 87.6247 5.53483 87.7852 6.06055C88.416 4.88737 89.3568 4.30078 90.6074 4.30078C92.4779 4.30078 93.4131 5.45459 93.4131 7.76221V13ZM102.959 9.27295H97.165C97.1872 10.0588 97.4279 10.6647 97.8872 11.0908C98.3521 11.5169 98.9884 11.73 99.7964 11.73C100.704 11.73 101.537 11.4588 102.295 10.9165V12.4688C101.52 12.9557 100.496 13.1992 99.2236 13.1992C97.973 13.1992 96.9907 12.8146 96.2769 12.0454C95.5685 11.2707 95.2144 10.1833 95.2144 8.7832C95.2144 7.46061 95.6045 6.38428 96.3848 5.5542C97.1706 4.71859 98.1445 4.30078 99.3066 4.30078C100.469 4.30078 101.368 4.67432 102.004 5.42139C102.641 6.16846 102.959 7.20605 102.959 8.53418V9.27295ZM101.1 7.91162C101.094 7.21989 100.931 6.68311 100.61 6.30127C100.289 5.9139 99.8462 5.72021 99.2817 5.72021C98.7284 5.72021 98.258 5.9222 97.8706 6.32617C97.4888 6.73014 97.2536 7.25863 97.165 7.91162H101.1ZM112.364 13H110.438V8.21045C110.438 6.62223 109.876 5.82812 108.753 5.82812C108.166 5.82812 107.682 6.04948 107.3 6.49219C106.918 6.92936 106.728 7.48275 106.728 8.15234V13H104.793V4.5H106.728V5.91113H106.761C107.397 4.83757 108.316 4.30078 109.517 4.30078C110.441 4.30078 111.146 4.60238 111.633 5.20557C112.12 5.80322 112.364 6.66927 112.364 7.80371V13ZM122.134 13H120.208V11.6553H120.175C119.616 12.6846 118.747 13.1992 117.568 13.1992C115.56 13.1992 114.555 11.9928 114.555 9.58008V4.5H116.481V9.38086C116.481 10.9082 117.07 11.6719 118.249 11.6719C118.819 11.6719 119.287 11.4616 119.652 11.041C120.023 10.6204 120.208 10.0698 120.208 9.38916V4.5H122.134V13ZM124.118 12.7344V10.9497C124.837 11.4976 125.631 11.7715 126.5 11.7715C127.662 11.7715 128.243 11.4284 128.243 10.7422C128.243 10.5485 128.193 10.3853 128.094 10.2524C127.994 10.1141 127.859 9.99235 127.687 9.88721C127.521 9.78206 127.322 9.68799 127.089 9.60498C126.862 9.52197 126.608 9.4279 126.326 9.32275C125.977 9.18441 125.662 9.03776 125.379 8.88281C125.103 8.72786 124.87 8.55355 124.682 8.35986C124.5 8.16064 124.361 7.93652 124.267 7.6875C124.173 7.43848 124.126 7.14795 124.126 6.81592C124.126 6.40641 124.223 6.04671 124.417 5.73682C124.61 5.42139 124.87 5.15853 125.197 4.94824C125.523 4.73242 125.894 4.57194 126.309 4.4668C126.724 4.35612 127.153 4.30078 127.596 4.30078C128.382 4.30078 129.084 4.41976 129.704 4.65771V6.34277C129.106 5.93327 128.42 5.72852 127.646 5.72852C127.402 5.72852 127.181 5.75342 126.981 5.80322C126.788 5.85303 126.622 5.9222 126.483 6.01074C126.345 6.09928 126.237 6.20719 126.16 6.33447C126.082 6.45622 126.043 6.5918 126.043 6.74121C126.043 6.92383 126.082 7.07878 126.16 7.20605C126.237 7.33333 126.351 7.44678 126.5 7.54639C126.655 7.64046 126.838 7.729 127.048 7.81201C127.264 7.88949 127.51 7.97526 127.787 8.06934C128.152 8.21875 128.478 8.37093 128.766 8.52588C129.059 8.68083 129.308 8.85791 129.513 9.05713C129.718 9.25081 129.876 9.4777 129.986 9.73779C130.097 9.99235 130.152 10.2967 130.152 10.6509C130.152 11.0825 130.053 11.4588 129.854 11.7798C129.654 12.1007 129.389 12.3664 129.057 12.5767C128.725 12.7869 128.34 12.9419 127.903 13.0415C127.471 13.1466 127.015 13.1992 126.533 13.1992C125.604 13.1992 124.798 13.0443 124.118 12.7344ZM136.469 12.9087C136.093 13.0968 135.598 13.1909 134.983 13.1909C133.334 13.1909 132.51 12.3996 132.51 10.8169V6.01074H131.09V4.5H132.51V2.53271L134.436 1.98486V4.5H136.469V6.01074H134.436V10.2607C134.436 10.7643 134.527 11.124 134.709 11.3398C134.892 11.5557 135.196 11.6636 135.623 11.6636C135.949 11.6636 136.231 11.5695 136.469 11.3813V12.9087ZM143.06 6.33447C142.828 6.15186 142.493 6.06055 142.056 6.06055C141.486 6.06055 141.01 6.31787 140.628 6.83252C140.246 7.34717 140.055 8.0472 140.055 8.93262V13H138.129V4.5H140.055V6.25146H140.088C140.277 5.65381 140.564 5.18896 140.952 4.85693C141.345 4.51937 141.782 4.35059 142.263 4.35059C142.612 4.35059 142.877 4.40316 143.06 4.5083V6.33447ZM145.393 2.71533C145.077 2.71533 144.806 2.61296 144.579 2.4082C144.358 2.20345 144.247 1.94336 144.247 1.62793C144.247 1.3125 144.358 1.04964 144.579 0.839355C144.806 0.629069 145.077 0.523926 145.393 0.523926C145.719 0.523926 145.996 0.629069 146.223 0.839355C146.45 1.04964 146.563 1.3125 146.563 1.62793C146.563 1.92676 146.45 2.18408 146.223 2.3999C145.996 2.61019 145.719 2.71533 145.393 2.71533ZM146.347 13H144.421V4.5H146.347V13ZM150.83 11.7466H150.796V16.9097H148.871V4.5H150.796V5.99414H150.83C151.488 4.86523 152.451 4.30078 153.718 4.30078C154.797 4.30078 155.639 4.67985 156.242 5.43799C156.845 6.19613 157.146 7.21436 157.146 8.49268C157.146 9.90934 156.806 11.0438 156.125 11.896C155.445 12.7482 154.515 13.1743 153.336 13.1743C152.252 13.1743 151.416 12.6984 150.83 11.7466ZM150.78 8.39307V9.44727C150.78 10.0671 150.976 10.5928 151.369 11.0244C151.768 11.4561 152.271 11.6719 152.88 11.6719C153.594 11.6719 154.153 11.3952 154.557 10.8418C154.966 10.2829 155.171 9.50537 155.171 8.50928C155.171 7.67367 154.98 7.02067 154.598 6.55029C154.222 6.07438 153.71 5.83643 153.062 5.83643C152.376 5.83643 151.823 6.07992 151.402 6.56689C150.987 7.05387 150.78 7.6626 150.78 8.39307ZM163.588 9.06543H159.056V7.646H163.588V9.06543ZM170.436 12.9087C170.06 13.0968 169.564 13.1909 168.95 13.1909C167.301 13.1909 166.477 12.3996 166.477 10.8169V6.01074H165.057V4.5H166.477V2.53271L168.402 1.98486V4.5H170.436V6.01074H168.402V10.2607C168.402 10.7643 168.494 11.124 168.676 11.3398C168.859 11.5557 169.163 11.6636 169.589 11.6636C169.916 11.6636 170.198 11.5695 170.436 11.3813V12.9087ZM171.565 12.7344V10.9497C172.284 11.4976 173.078 11.7715 173.947 11.7715C175.109 11.7715 175.69 11.4284 175.69 10.7422C175.69 10.5485 175.641 10.3853 175.541 10.2524C175.441 10.1141 175.306 9.99235 175.134 9.88721C174.968 9.78206 174.769 9.68799 174.537 9.60498C174.31 9.52197 174.055 9.4279 173.773 9.32275C173.424 9.18441 173.109 9.03776 172.827 8.88281C172.55 8.72786 172.318 8.55355 172.129 8.35986C171.947 8.16064 171.808 7.93652 171.714 7.6875C171.62 7.43848 171.573 7.14795 171.573 6.81592C171.573 6.40641 171.67 6.04671 171.864 5.73682C172.057 5.42139 172.318 5.15853 172.644 4.94824C172.971 4.73242 173.341 4.57194 173.756 4.4668C174.171 4.35612 174.6 4.30078 175.043 4.30078C175.829 4.30078 176.532 4.41976 177.151 4.65771V6.34277C176.554 5.93327 175.868 5.72852 175.093 5.72852C174.849 5.72852 174.628 5.75342 174.429 5.80322C174.235 5.85303 174.069 5.9222 173.931 6.01074C173.792 6.09928 173.684 6.20719 173.607 6.33447C173.529 6.45622 173.491 6.5918 173.491 6.74121C173.491 6.92383 173.529 7.07878 173.607 7.20605C173.684 7.33333 173.798 7.44678 173.947 7.54639C174.102 7.64046 174.285 7.729 174.495 7.81201C174.711 7.88949 174.957 7.97526 175.234 8.06934C175.599 8.21875 175.926 8.37093 176.213 8.52588C176.507 8.68083 176.756 8.85791 176.96 9.05713C177.165 9.25081 177.323 9.4777 177.434 9.73779C177.544 9.99235 177.6 10.2967 177.6 10.6509C177.6 11.0825 177.5 11.4588 177.301 11.7798C177.102 12.1007 176.836 12.3664 176.504 12.5767C176.172 12.7869 175.787 12.9419 175.35 13.0415C174.918 13.1466 174.462 13.1992 173.98 13.1992C173.051 13.1992 172.246 13.0443 171.565 12.7344Z" fill="black"/>
</svg>
