<svg width="105" height="14" viewBox="0 0 105 14" fill="none" xmlns="http://www.w3.org/2000/svg">
<path d="M12.9619 13H11.0361V8.36816C11.0361 7.47721 10.9089 6.83252 10.6543 6.43408C10.4053 6.03564 9.98193 5.83643 9.38428 5.83643C8.8807 5.83643 8.45182 6.08822 8.09766 6.5918C7.74902 7.09538 7.57471 7.69857 7.57471 8.40137V13H5.64062V8.21045C5.64062 6.62777 5.08171 5.83643 3.96387 5.83643C3.44368 5.83643 3.01481 6.07438 2.67725 6.55029C2.34521 7.0262 2.1792 7.64323 2.1792 8.40137V13H0.253418V4.5H2.1792V5.84473H2.2124C2.82666 4.81543 3.72038 4.30078 4.89355 4.30078C5.48014 4.30078 5.99202 4.46403 6.4292 4.79053C6.87191 5.11149 7.1735 5.53483 7.33398 6.06055C7.96484 4.88737 8.9056 4.30078 10.1562 4.30078C12.0267 4.30078 12.9619 5.45459 12.9619 7.76221V13ZM22.7236 13H20.7979V11.6553H20.7646C20.2057 12.6846 19.3369 13.1992 18.1582 13.1992C16.1494 13.1992 15.145 11.9928 15.145 9.58008V4.5H17.0708V9.38086C17.0708 10.9082 17.6602 11.6719 18.8389 11.6719C19.4089 11.6719 19.8765 11.4616 20.2417 11.041C20.6125 10.6204 20.7979 10.0698 20.7979 9.38916V4.5H22.7236V13ZM26.21 2.71533C25.8945 2.71533 25.6234 2.61296 25.3965 2.4082C25.1751 2.20345 25.0645 1.94336 25.0645 1.62793C25.0645 1.3125 25.1751 1.04964 25.3965 0.839355C25.6234 0.629069 25.8945 0.523926 26.21 0.523926C26.5365 0.523926 26.8132 0.629069 27.04 0.839355C27.2669 1.04964 27.3804 1.3125 27.3804 1.62793C27.3804 1.92676 27.2669 2.18408 27.04 2.3999C26.8132 2.61019 26.5365 2.71533 26.21 2.71533ZM27.1646 13H25.2388V4.5H27.1646V13ZM34.1621 9.06543H29.6299V7.646H34.1621V9.06543ZM49.2363 13H47.3105V8.36816C47.3105 7.47721 47.1833 6.83252 46.9287 6.43408C46.6797 6.03564 46.2563 5.83643 45.6587 5.83643C45.1551 5.83643 44.7262 6.08822 44.3721 6.5918C44.0234 7.09538 43.8491 7.69857 43.8491 8.40137V13H41.915V8.21045C41.915 6.62777 41.3561 5.83643 40.2383 5.83643C39.7181 5.83643 39.2892 6.07438 38.9517 6.55029C38.6196 7.0262 38.4536 7.64323 38.4536 8.40137V13H36.5278V4.5H38.4536V5.84473H38.4868C39.1011 4.81543 39.9948 4.30078 41.168 4.30078C41.7546 4.30078 42.2664 4.46403 42.7036 4.79053C43.1463 5.11149 43.4479 5.53483 43.6084 6.06055C44.2393 4.88737 45.18 4.30078 46.4307 4.30078C48.3011 4.30078 49.2363 5.45459 49.2363 7.76221V13ZM58.7822 9.27295H52.9883C53.0104 10.0588 53.2511 10.6647 53.7104 11.0908C54.1753 11.5169 54.8117 11.73 55.6196 11.73C56.5272 11.73 57.36 11.4588 58.1182 10.9165V12.4688C57.3434 12.9557 56.3197 13.1992 55.0469 13.1992C53.7962 13.1992 52.814 12.8146 52.1001 12.0454C51.3918 11.2707 51.0376 10.1833 51.0376 8.7832C51.0376 7.46061 51.4277 6.38428 52.208 5.5542C52.9938 4.71859 53.9678 4.30078 55.1299 4.30078C56.292 4.30078 57.1912 4.67432 57.8276 5.42139C58.464 6.16846 58.7822 7.20605 58.7822 8.53418V9.27295ZM56.9229 7.91162C56.9173 7.21989 56.7541 6.68311 56.4331 6.30127C56.1121 5.9139 55.6694 5.72021 55.105 5.72021C54.5516 5.72021 54.0812 5.9222 53.6938 6.32617C53.312 6.73014 53.0768 7.25863 52.9883 7.91162H56.9229ZM68.187 13H66.2612V8.21045C66.2612 6.62223 65.6995 5.82812 64.5762 5.82812C63.9896 5.82812 63.5054 6.04948 63.1235 6.49219C62.7417 6.92936 62.5508 7.48275 62.5508 8.15234V13H60.6167V4.5H62.5508V5.91113H62.584C63.2204 4.83757 64.139 4.30078 65.3398 4.30078C66.264 4.30078 66.9696 4.60238 67.4565 5.20557C67.9435 5.80322 68.187 6.66927 68.187 7.80371V13ZM77.957 13H76.0312V11.6553H75.998C75.4391 12.6846 74.5703 13.1992 73.3916 13.1992C71.3828 13.1992 70.3784 11.9928 70.3784 9.58008V4.5H72.3042V9.38086C72.3042 10.9082 72.8936 11.6719 74.0723 11.6719C74.6423 11.6719 75.1099 11.4616 75.4751 11.041C75.8459 10.6204 76.0312 10.0698 76.0312 9.38916V4.5H77.957V13ZM82.4312 11.7715H82.3979V13H80.4722V0.416016H82.3979V5.99414H82.4312C83.0897 4.86523 84.0526 4.30078 85.3198 4.30078C86.3934 4.30078 87.2318 4.68262 87.835 5.44629C88.4437 6.20443 88.748 7.22266 88.748 8.50098C88.748 9.92318 88.4077 11.0632 87.7271 11.9209C87.0464 12.7731 86.1167 13.1992 84.938 13.1992C83.8312 13.1992 82.9956 12.7233 82.4312 11.7715ZM82.3813 8.39307V9.44727C82.3813 10.0671 82.5778 10.5928 82.9707 11.0244C83.3691 11.4561 83.8727 11.6719 84.4814 11.6719C85.1953 11.6719 85.7542 11.3952 86.1582 10.8418C86.5677 10.2829 86.7725 9.50537 86.7725 8.50928C86.7725 7.67367 86.5815 7.02067 86.1997 6.55029C85.8234 6.07438 85.3115 5.83643 84.6641 5.83643C83.9779 5.83643 83.4245 6.07992 83.0039 6.56689C82.5889 7.05387 82.3813 7.6626 82.3813 8.39307ZM97.0405 13H95.1729V11.6719H95.1396C94.5531 12.6901 93.6925 13.1992 92.5581 13.1992C91.7225 13.1992 91.0667 12.9723 90.5908 12.5186C90.1204 12.0648 89.8853 11.4644 89.8853 10.7173C89.8853 9.11247 90.8094 8.17725 92.6577 7.91162L95.1812 7.55469C95.1812 6.34277 94.6056 5.73682 93.4546 5.73682C92.4419 5.73682 91.5288 6.08545 90.7153 6.78271V5.09766C91.6118 4.56641 92.6466 4.30078 93.8198 4.30078C95.967 4.30078 97.0405 5.35775 97.0405 7.47168V13ZM95.1812 8.82471L93.3965 9.07373C92.8431 9.14567 92.4253 9.28125 92.1431 9.48047C91.8664 9.67415 91.728 10.0173 91.728 10.5098C91.728 10.8695 91.8553 11.1655 92.1099 11.3979C92.37 11.6248 92.7158 11.7383 93.1475 11.7383C93.734 11.7383 94.2183 11.5335 94.6001 11.124C94.9875 10.709 95.1812 10.1888 95.1812 9.56348V8.82471ZM104.329 6.33447C104.096 6.15186 103.761 6.06055 103.324 6.06055C102.754 6.06055 102.278 6.31787 101.896 6.83252C101.515 7.34717 101.324 8.0472 101.324 8.93262V13H99.3979V4.5H101.324V6.25146H101.357C101.545 5.65381 101.833 5.18896 102.22 4.85693C102.613 4.51937 103.05 4.35059 103.532 4.35059C103.88 4.35059 104.146 4.40316 104.329 4.5083V6.33447Z" fill="black"/>
</svg>